{
  "accessors": [
    {
      "bufferView": 2,
      "componentType": 5126,
      "count": 13207,
      "max": [
        10.43702220916748,
        1.1864759922027588,
        24.70589256286621
      ],
      "min": [
        -8.890588760375977,
        -6.777655124664307,
        1.3367209434509277
      ],
      "type": "VEC3"
    },
    {
      "bufferView": 2,
      "byteOffset": 158484,
      "componentType": 5126,
      "count": 13207,
      "max": [
        0.9999245405197144,
        0.9705357551574707,
        0.9999961256980896
      ],
      "min": [
        -0.9999374747276306,
        -0.9999852180480957,
        -0.9995118975639343
      ],
      "type": "VEC3"
    },
    {
      "bufferView": 3,
      "componentType": 5126,
      "count": 13207,
      "max": [
        0.9999651312828064,
        0.9997824430465698,
        0.9999581575393677,
        1.0
      ],
      "min": [
        -0.9999793767929077,
        -0.9999901056289673,
        -0.9999992251396179,
        -1.0
      ],
      "type": "VEC4"
    },
    {
      "bufferView": 1,
      "componentType": 5126,
      "count": 13207,
      "max": [
        0.9900000095367432,
        0.9900000095367432
      ],
      "min": [
        0.009999999776482582,
        0.017728999257087708
      ],
      "type": "VEC2"
    },
    {
      "bufferView": 0,
      "componentType": 5125,
      "count": 70047,
      "type": "SCALAR"
    }
  ],
  "asset": {
    "extras": {
      "author": "Antoine Dresen (https://sketchfab.com/adresen)",
      "license": "CC-BY-4.0 (http://creativecommons.org/licenses/by/4.0/)",
      "source": "https://sketchfab.com/3d-models/ox-head-sculpture-paris-affae482da4c4a1e86d38a472fb1be69",
      "title": "Ox head sculpture, Paris"
    },
    "generator": "Sketchfab-12.63.0",
    "version": "2.0"
  },
  "bufferViews": [
    {
      "buffer": 0,
      "byteLength": 280188,
      "name": "floatBufferViews",
      "target": 34963
    },
    {
      "buffer": 0,
      "byteLength": 105656,
      "byteOffset": 280188,
      "byteStride": 8,
      "name": "floatBufferViews",
      "target": 34962
    },
    {
      "buffer": 0,
      "byteLength": 316968,
      "byteOffset": 385844,
      "byteStride": 12,
      "name": "floatBufferViews",
      "target": 34962
    },
    {
      "buffer": 0,
      "byteLength": 211312,
      "byteOffset": 702812,
      "byteStride": 16,
      "name": "floatBufferViews",
      "target": 34962
    }
  ],
  "buffers": [
    {
      "byteLength": 914124,
      "uri": "scene.bin"
    }
  ],
  "images": [
    {
      "uri": "textures/aiStandardSurface1SG_baseColor.png"
    },
    {
      "uri": "textures/aiStandardSurface1SG_metallicRoughness.png"
    },
    {
      "uri": "textures/aiStandardSurface1SG_normal.png"
    }
  ],
  "materials": [
    {
      "doubleSided": true,
      "name": "aiStandardSurface1SG",
      "normalTexture": {
        "index": 2,
        "scale": 0.7761051829268293
      },
      "occlusionTexture": {
        "index": 1
      },
      "pbrMetallicRoughness": {
        "baseColorTexture": {
          "index": 0
        },
        "metallicFactor": 0.7761051829268293,
        "metallicRoughnessTexture": {
          "index": 1
        },
        "roughnessFactor": 0.6
      }
    }
  ],
  "meshes": [
    {
      "name": "Object_0",
      "primitives": [
        {
          "attributes": {
            "NORMAL": 1,
            "POSITION": 0,
            "TANGENT": 2,
            "TEXCOORD_0": 3
          },
          "indices": 4,
          "material": 0,
          "mode": 4
        }
      ]
    }
  ],
  "nodes": [
    {
      "children": [
        1
      ],
      "matrix": [
        0.9998689889907837,
        -0.016187306493520737,
        -3.594304075154206e-18,
        0.0,
        0.0,
        2.220446049250313e-16,
        -1.0,
        0.0,
        0.016187306493520737,
        0.9998689889907837,
        2.2201551463724904e-16,
        0.0,
        -0.21067848801612854,
        0.014222402125597,
        3.1580076610631114e-18,
        1.0
      ],
      "name": "Sketchfab_model"
    },
    {
      "children": [
        2
      ],
      "name": "TeteBoeuf_LowUV.obj.cleaner.materialmerger.gles"
    },
    {
      "mesh": 0,
      "name": "Object_2"
    }
  ],
  "samplers": [
    {
      "magFilter": 9729,
      "minFilter": 9987,
      "wrapS": 10497,
      "wrapT": 10497
    }
  ],
  "scene": 0,
  "scenes": [
    {
      "name": "Sketchfab_Scene",
      "nodes": [
        0
      ]
    }
  ],
  "textures": [
    {
      "sampler": 0,
      "source": 0
    },
    {
      "sampler": 0,
      "source": 1
    },
    {
      "sampler": 0,
      "source": 2
    }
  ]
}
